<?xml version="1.0" encoding="UTF-8"?>
<svg xmlns="http://www.w3.org/2000/svg" xmlns:xlink="http://www.w3.org/1999/xlink" viewBox="0 0 96 96" width="96px" height="96px">
<g id="surface45808049">
<path style=" stroke:none;fill-rule:nonzero;fill:rgb(90.588236%,29.803923%,23.529412%);fill-opacity:1;" d="M 68 24 L 56 12 L 40 12 L 28 24 L 22 24 L 22 80 C 22 84.398438 25.601562 88 30 88 L 66 88 C 70.398438 88 74 84.398438 74 80 L 74 24 Z M 68 24 "/>
<path style=" stroke:none;fill-rule:nonzero;fill:rgb(58.823532%,25.490198%,23.529412%);fill-opacity:1;" d="M 49 78 L 47 78 C 45.398438 78 44 76.601562 44 75 L 44 37 C 44 35.398438 45.398438 34 47 34 L 49 34 C 50.601562 34 52 35.398438 52 37 L 52 75 C 52 76.601562 50.601562 78 49 78 Z M 63 78 C 61.398438 78 60 76.601562 60 75 L 60 37 C 60 35.398438 61.398438 34 63 34 C 64.601562 34 66 35.398438 66 37 L 66 75 C 66 76.601562 64.601562 78 63 78 Z M 33 78 C 31.398438 78 30 76.601562 30 75 L 30 37 C 30 35.398438 31.398438 34 33 34 C 34.601562 34 36 35.398438 36 37 L 36 75 C 36 76.601562 34.601562 78 33 78 Z M 33 78 "/>
<path style=" stroke:none;fill-rule:nonzero;fill:rgb(58.823532%,25.490198%,23.529412%);fill-opacity:1;" d="M 22 16 L 74 16 C 76.199219 16 78 17.800781 78 20 L 78 24 L 18 24 L 18 20 C 18 17.800781 19.800781 16 22 16 Z M 22 16 "/>
</g>
</svg>
