<?xml version="1.0" encoding="UTF-8"?>
<svg xmlns="http://www.w3.org/2000/svg" xmlns:xlink="http://www.w3.org/1999/xlink" viewBox="0 0 96 96" width="96px" height="96px">
<g id="surface45818981">
<path style="fill-rule:nonzero;fill:rgb(100%,100%,100%);fill-opacity:1;stroke-width:10;stroke-linecap:butt;stroke-linejoin:round;stroke:rgb(90.588236%,29.803923%,23.529412%);stroke-opacity:1;stroke-miterlimit:10;" d="M 132.583927 43.000593 L 132.583927 143.330076 C 132.583927 151.217497 126.133275 157.668149 118.25326 157.668149 L 53.746742 157.668149 C 45.866726 157.668149 39.416074 151.217497 39.416074 143.330076 L 39.416074 43.000593 L 50.169629 43.000593 L 71.669333 21.500889 L 100.330668 21.500889 L 121.830372 43.000593 Z M 132.583927 43.000593 " transform="matrix(0.527442,0,0,0.527442,2.64,2.64)"/>
<path style="fill-rule:nonzero;fill:rgb(50.980395%,20.784314%,19.607843%);fill-opacity:1;stroke-width:10;stroke-linecap:butt;stroke-linejoin:round;stroke:rgb(90.588236%,29.803923%,23.529412%);stroke-opacity:1;stroke-miterlimit:10;" d="M 87.79226 139.752963 L 84.207741 139.752963 C 81.341608 139.752963 78.830964 137.242319 78.830964 134.376186 L 78.830964 66.292556 C 78.830964 63.426422 81.341608 60.915778 84.207741 60.915778 L 87.79226 60.915778 C 90.658393 60.915778 93.169037 63.426422 93.169037 66.292556 L 93.169037 134.376186 C 93.169037 137.242319 90.658393 139.752963 87.79226 139.752963 Z M 112.876482 139.752963 C 110.010349 139.752963 107.499705 137.242319 107.499705 134.376186 L 107.499705 66.292556 C 107.499705 63.426422 110.010349 60.915778 112.876482 60.915778 C 115.742615 60.915778 118.25326 63.426422 118.25326 66.292556 L 118.25326 134.376186 C 118.25326 137.242319 115.742615 139.752963 112.876482 139.752963 Z M 59.123519 139.752963 C 56.257386 139.752963 53.746742 137.242319 53.746742 134.376186 L 53.746742 66.292556 C 53.746742 63.426422 56.257386 60.915778 59.123519 60.915778 C 61.989653 60.915778 64.500297 63.426422 64.500297 66.292556 L 64.500297 134.376186 C 64.500297 137.242319 61.989653 139.752963 59.123519 139.752963 Z M 59.123519 139.752963 " transform="matrix(0.527442,0,0,0.527442,2.64,2.64)"/>
<path style="fill-rule:nonzero;fill:rgb(50.980395%,20.784314%,19.607843%);fill-opacity:1;stroke-width:10;stroke-linecap:butt;stroke-linejoin:round;stroke:rgb(90.588236%,29.803923%,23.529412%);stroke-opacity:1;stroke-miterlimit:10;" d="M 39.416074 28.669926 L 132.583927 28.669926 C 136.523935 28.669926 139.752963 31.891548 139.752963 35.831556 L 139.752963 43.000593 L 32.247038 43.000593 L 32.247038 35.831556 C 32.247038 31.891548 35.476067 28.669926 39.416074 28.669926 Z M 39.416074 28.669926 " transform="matrix(0.527442,0,0,0.527442,2.64,2.64)"/>
<path style=" stroke:none;fill-rule:nonzero;fill:rgb(100%,100%,100%);fill-opacity:1;" d="M 66.898438 25.320312 L 55.558594 13.980469 L 40.441406 13.980469 L 29.101562 25.320312 L 23.429688 25.320312 L 23.429688 78.238281 C 23.429688 82.398438 26.832031 85.800781 30.988281 85.800781 L 65.011719 85.800781 C 69.167969 85.800781 72.570312 82.398438 72.570312 78.238281 L 72.570312 25.320312 Z M 66.898438 25.320312 "/>
<path style=" stroke:none;fill-rule:nonzero;fill:rgb(50.980395%,20.784314%,19.607843%);fill-opacity:1;" d="M 48.945312 76.351562 L 47.054688 76.351562 C 45.542969 76.351562 44.21875 75.027344 44.21875 73.515625 L 44.21875 37.605469 C 44.21875 36.09375 45.542969 34.769531 47.054688 34.769531 L 48.945312 34.769531 C 50.457031 34.769531 51.78125 36.09375 51.78125 37.605469 L 51.78125 73.515625 C 51.78125 75.027344 50.457031 76.351562 48.945312 76.351562 Z M 62.175781 76.351562 C 60.664062 76.351562 59.339844 75.027344 59.339844 73.515625 L 59.339844 37.605469 C 59.339844 36.09375 60.664062 34.769531 62.175781 34.769531 C 63.6875 34.769531 65.011719 36.09375 65.011719 37.605469 L 65.011719 73.515625 C 65.011719 75.027344 63.6875 76.351562 62.175781 76.351562 Z M 33.824219 76.351562 C 32.3125 76.351562 30.988281 75.027344 30.988281 73.515625 L 30.988281 37.605469 C 30.988281 36.09375 32.3125 34.769531 33.824219 34.769531 C 35.335938 34.769531 36.660156 36.09375 36.660156 37.605469 L 36.660156 73.515625 C 36.660156 75.027344 35.335938 76.351562 33.824219 76.351562 Z M 33.824219 76.351562 "/>
<path style=" stroke:none;fill-rule:nonzero;fill:rgb(50.980395%,20.784314%,19.607843%);fill-opacity:1;" d="M 23.429688 17.761719 L 72.570312 17.761719 C 74.648438 17.761719 76.351562 19.460938 76.351562 21.539062 L 76.351562 25.320312 L 19.648438 25.320312 L 19.648438 21.539062 C 19.648438 19.460938 21.351562 17.761719 23.429688 17.761719 Z M 23.429688 17.761719 "/>
</g>
</svg>
